<svg width="157" height="54" viewBox="0 0 157 54" fill="none" xmlns="http://www.w3.org/2000/svg">
<g clip-path="url(#clip0_1_376)">
<path d="M31.4838 33.9807C30.9291 33.7118 30.2926 33.6653 29.7048 33.8507C29.117 34.0362 28.6224 34.4395 28.3224 34.978C28.0831 35.3669 27.8437 35.7459 27.5944 36.1149C27.1668 36.7557 26.7074 37.3747 26.2182 37.9698C25.6951 38.6031 25.0386 39.113 24.2956 39.463C23.5525 39.813 22.7413 39.9945 21.92 39.9945C21.0986 39.9945 20.2874 39.813 19.5444 39.463C18.8013 39.113 18.1448 38.6031 17.6217 37.9698C17.143 37.3715 16.6843 36.7432 16.2455 36.095C14.0035 32.644 12.4554 28.7892 11.688 24.746C11.2327 22.5304 10.946 20.2834 10.8303 18.0244C10.7543 16.5746 11.1959 15.1448 12.0763 13.9903C12.9568 12.8359 14.2188 12.0318 15.6372 11.7217H15.717C17.7691 11.2894 19.8482 10.9962 21.9399 10.8441C24.0314 10.9933 26.1104 11.2832 28.1629 11.7117H28.2327C29.6491 12.0262 30.9079 12.8335 31.7846 13.9896C32.6613 15.1458 33.099 16.5757 33.0196 18.0244C33.0196 18.4632 33.0196 18.912 32.9298 19.3807C32.8997 19.6995 32.9334 20.021 33.0287 20.3266C33.1241 20.6322 33.2794 20.9158 33.4854 21.1608C33.6914 21.4058 33.9442 21.6074 34.2289 21.7538C34.5136 21.9002 34.8246 21.9885 35.1437 22.0135L41.0476 22.4822C41.3647 22.5095 41.6841 22.4738 41.9874 22.3772C42.2907 22.2805 42.5719 22.1248 42.8147 21.919C43.0576 21.7132 43.2573 21.4614 43.4025 21.1781C43.5476 20.8948 43.6353 20.5856 43.6604 20.2683C43.9413 16.7958 43.918 13.3053 43.5906 9.83687C43.509 9.02404 43.2658 8.23571 42.8754 7.51816C42.4849 6.8006 41.955 6.16828 41.3168 5.65831C35.772 1.2803 25.6697 0.302979 22.7377 0.0736068C22.1966 0.0337326 21.6533 0.0337326 21.1122 0.0736068C18.1902 0.302979 8.07788 1.2803 2.53306 5.64834C1.89462 6.15728 1.36517 6.78952 0.976241 7.50741C0.587316 8.22529 0.346881 9.01412 0.269262 9.82689C-0.458744 17.1867 -1.12691 41.3107 19.1575 53.1782C19.9976 53.6679 20.9526 53.9259 21.925 53.9259C22.8973 53.9259 23.8523 53.6679 24.6924 53.1782C30.1503 50.0206 34.6829 45.4845 37.8364 40.0242C38.1592 39.4672 38.2481 38.8049 38.0836 38.1825C37.9191 37.56 37.5146 37.0281 36.9588 36.7033L36.8092 36.6235L31.4838 33.9807Z" fill="#FFC247"/>
<path d="M95.8874 44.5319C89.7941 44.5319 85.426 40.2436 85.426 33.8412C85.3821 32.4891 85.6055 31.1417 86.0833 29.8762C86.561 28.6106 87.2838 27.4518 88.2103 26.466C89.1367 25.4803 90.2485 24.6871 91.4821 24.1318C92.7156 23.5766 94.0466 23.2702 95.3987 23.2302H96.0569C102.539 23.2302 106.159 27.8974 106.159 34.3498C106.159 34.5791 106.159 35.0479 106.159 35.5465H91.2002C91.3261 36.7269 91.8852 37.8187 92.7693 38.6108C93.6535 39.4029 94.8 39.839 95.9871 39.8347C96.7389 39.8983 97.4942 39.7642 98.1782 39.4459C98.8622 39.1275 99.451 38.6359 99.8864 38.0197H105.87C104.633 41.7994 101.083 44.5419 95.9472 44.5419M100.495 31.8466C100.431 30.6994 99.9259 29.6213 99.0861 28.8372C98.2462 28.0531 97.136 27.6235 95.9871 27.6382C94.8074 27.6138 93.6615 28.0325 92.7753 28.8116C91.8892 29.5907 91.3272 30.6736 91.2002 31.8466H100.495Z" fill="#02033B"/>
<path d="M113.808 27.0497C114.965 24.5864 117.279 23.6191 119.902 23.5393V29.134C118.846 29.0848 117.789 29.2026 116.77 29.483C115.344 29.9418 113.998 30.9091 113.998 35.1575V43.8437H108.014V23.8983H113.798L113.808 27.0497Z" fill="#02033B"/>
<path d="M133.285 39.1068H134.482L136.536 43.8139H131.639C125.975 43.9336 124.818 40.5329 124.818 35.9056V29.1441H121.457V24.0081H124.818V19.5204L130.642 16.9375V24.0081H134.731V29.184H130.642V34.9382C130.642 37.6408 130.752 39.1367 133.265 39.1367" fill="#02033B"/>
<path d="M135.549 33.8413C135.549 27.0499 140.635 23.2703 146.309 23.2703C151.984 23.2703 157 27.0499 157 33.8413C157 40.6327 151.944 44.4921 146.309 44.4921C140.675 44.4921 135.549 40.6726 135.549 33.8413ZM146.309 39.8249C149.361 39.8249 151.296 37.1223 151.296 33.8413C151.296 30.5603 149.371 27.8577 146.309 27.8577C143.248 27.8577 141.323 30.5603 141.323 33.8413C141.323 37.1223 143.258 39.8249 146.309 39.8249Z" fill="#02033B"/>
<path d="M70.9457 44.532C63.0373 44.532 56.9839 39.0869 56.9839 30.291C57.0138 21.6546 63.1071 16.03 71.0554 16.03C77.9565 16.03 82.4741 19.4207 84.2094 25.524H78.116C76.7298 22.4325 74.127 21.2757 71.0554 21.2757C66.6973 21.2757 63.1869 24.9057 63.1869 30.3408C63.1869 35.7759 66.7372 39.3162 71.0554 39.3162C74.8749 39.3162 76.9592 37.8503 78.0363 35.1178H84.0897C82.5539 41.2111 77.6473 44.5619 70.8958 44.5619" fill="#02033B"/>
</g>
<defs>
<clipPath id="clip0_1_376">
<rect width="157" height="53.8525" fill="white" transform="translate(0 0.0737305)"/>
</clipPath>
</defs>
</svg>
