<svg width="190" height="233" viewBox="0 0 190 233" fill="none" xmlns="http://www.w3.org/2000/svg">
<path d="M136.249 146.804C133.875 145.624 131.141 145.389 128.6 146.148C126.059 146.907 123.902 148.603 122.564 150.893C121.589 152.585 120.556 154.221 119.466 155.799C117.626 158.637 115.644 161.381 113.527 164.018C109.519 168.936 103.723 172.061 97.4126 172.707C91.1019 173.353 84.7931 171.466 79.8731 167.461C78.6196 166.425 77.4669 165.272 76.4303 164.018C74.3646 161.436 72.3849 158.725 70.4914 155.928C60.8245 141.027 54.1315 124.397 50.7812 106.954C48.8519 97.3878 47.6293 87.6931 47.1232 77.9478C46.7949 71.6911 48.7006 65.5212 52.5 60.5394C56.2995 55.5575 61.7455 52.0878 67.8662 50.7495H68.1675C77.0378 48.8837 86.0239 47.6185 95.0646 46.9624C104.09 47.6062 113.061 48.857 121.919 50.7065H122.177C128.297 52.0548 133.739 55.5346 137.531 60.5246C141.323 65.5146 143.217 71.6899 142.877 77.9478C142.877 79.8414 142.877 81.778 142.489 83.8006C142.36 85.176 142.505 86.5635 142.916 87.8823C143.328 89.201 143.998 90.4247 144.887 91.4821C145.776 92.5395 146.867 93.4093 148.095 94.0411C149.324 94.6729 150.666 95.0539 152.043 95.1619L177.52 97.1846C178.889 97.3024 180.267 97.1483 181.576 96.7312C182.885 96.3141 184.098 95.6422 185.146 94.7541C186.194 93.8661 187.056 92.7796 187.682 91.557C188.309 90.3345 188.687 89.0001 188.795 87.6308C190.018 72.631 189.902 57.5522 188.451 42.5728C188.116 39.0654 187.079 35.6614 185.4 32.5635C183.722 29.4656 181.437 26.7372 178.682 24.541C154.755 5.69155 111.117 1.47409 98.5074 0.484277C96.1723 0.312207 93.8277 0.312207 91.4926 0.484277C78.8833 1.47409 35.2455 5.69155 11.3179 24.541C8.56391 26.7417 6.27733 29.4704 4.59237 32.5668C2.90742 35.6633 1.85803 39.0652 1.50582 42.5728C-1.59273 74.3328 -4.51913 178.435 83.2729 229.647C86.898 231.761 91.019 232.874 95.2152 232.874C99.4113 232.874 103.532 231.761 107.157 229.647C130.627 216 150.098 196.425 163.62 172.884C164.317 171.697 164.773 170.385 164.962 169.022C165.152 167.659 165.07 166.273 164.722 164.941C164.374 163.61 163.767 162.36 162.936 161.264C162.104 160.168 161.064 159.247 159.876 158.553L159.23 158.209L136.249 146.804Z" fill="#FDB235"/>
</svg>
